{"title":"Bird on a Wire (1990) 1080p AC3 HDTV no logos","uid":9665944,"size":8020169143,"categoryP":"video","categoryS":"hd___movies","magnet":"?xt=urn:btih:99433675560f06aa33d3967b1157fec070566d34&amp;dn=Bird+on+a+Wire+%281990%29+1080p+AC3+HDTV+no+logos&amp;tr=udp%3A%2F%2Ftracker.openbittorrent.com%3A80&amp;tr=udp%3A%2F%2Fopen.demonii.com%3A1337&amp;tr=udp%3A%2F%2Ftracker.coppersurfer.tk%3A6969&amp;tr=udp%3A%2F%2Fexodus.desync.com%3A6969","seeders":1,"leechers":0,"uploader":"nabsltd","files":2,"time":1393375850,"description":"This is my own rip.\n\nGeneral\nUnique ID                        : 181089934836273615006835282677222168809 (0x883CA71EBDE0AC9CB113B578EE9558E9)\nFormat                           : Matroska\nFormat version                   : Version 4 / Version 2\nFile size                        : 7.38 GiB\nDuration                         : 1h 50mn\nOverall bit rate mode            : Variable\nOverall bit rate                 : 9 555 Kbps\nEncoded date                     : UTC 2014-02-25 11:59:06\nWriting application              : mkvmerge v6.5.0 ('Isn't she lovely') built on Oct 20 2013 12:50:05\nWriting library                  : libebml v1.3.0 + libmatroska v1.4.1\n\nVideo\nID                               : 1\nFormat                           : AVC\nFormat/Info                      : Advanced Video Codec\nFormat profile                   : &lt;a class=&quot;__cf_email__&quot; href=&quot;/cdn-cgi/l/email-protection&quot; data-cfemail=&quot;bdf5d4dad5fdf189938c&quot;&gt;[email&amp;#160;protected]&lt;/a&gt;&lt;script cf-hash='f9e31' type=&quot;text/javascript&quot;&gt;\n/* &lt;![CDATA[ */!function(){try{var t=&quot;currentScript&quot;in document?document.currentScript:function(){for(var t=document.getElementsByTagName(&quot;script&quot;),e=t.length;e--;)if(t[e].getAttribute(&quot;cf-hash&quot;))return t[e]}();if(t&amp;&amp;t.previousSibling){var e,r,n,i,c=t.previousSibling,a=c.getAttribute(&quot;data-cfemail&quot;);if(a){for(e=&quot;&quot;,r=parseInt(a.substr(0,2),16),n=2;a.length-n;n+=2)i=parseInt(a.substr(n,2),16)^r,e+=String.fromCharCode(i);e=document.createTextNode(e),c.parentNode.replaceChild(e,c)}}}catch(u){}}();/* ]]&gt; */&lt;/script&gt;\nFormat settings, CABAC           : Yes\nFormat settings, ReFrames        : 4 frames\nCodec ID                         : V_MPEG4/ISO/AVC\nDuration                         : 1h 50mn\nBit rate mode                    : Variable\nBit rate                         : 8 981 Kbps\nMaximum bit rate                 : 38.0 Mbps\nWidth                            : 1 908 pixels\nHeight                           : 816 pixels\nDisplay aspect ratio             : 2.35:1\nFrame rate                       : 23.976 fps\nColor space                      : YUV\nChroma subsampling               : 4:2:0\nBit depth                        : 8 bits\nScan type                        : Progressive\nBits/(Pixel*Frame)               : 0.241\nStream size                      : 6.93 GiB (94%)\nWriting library                  : x264 core 135 r2345 f0c1c53\nLanguage                         : English\nDefault                          : Yes\nForced                           : No\n\nAudio\nID                               : 2\nFormat                           : AC-3\nFormat/Info                      : Audio Coding 3\nMode extension                   : CM (complete main)\nCodec ID                         : A_AC3\nDuration                         : 1h 50mn\nBit rate mode                    : Constant\nBit rate                         : 384 Kbps\nChannel(s)                       : 2 channels\nChannel positions                : Front: L R\nSampling rate                    : 48.0 KHz\nBit depth                        : 16 bits\nCompression mode                 : Lossy\nStream size                      : 304 MiB (4%)\nLanguage                         : English\nDefault                          : Yes\nForced                           : No\n\nMenu\n00:00:00.000                     : en:Opening Credits\n00:06:28.722                     : en:A Chance Meeting\n00:12:16.027                     : en:Relocation Time\n00:15:32.974                     : en:Blasts From the Past\n00:22:14.041                     : en:No Butts About It\n00:27:47.791                     : en:Birds on a Wire\n00:35:27.917                     : en:Taking Flight\n00:45:49.622                     : en:Cash, Apology, Hair\n00:51:30.045                     : en:Butch on Wheels\n00:55:29.660                     : en:Bird Watching\n00:58:05.941                     : en:An Old Flame Treats a Fresh Wound\n01:05:14.661                     : en:The Unfriendly Skies\n01:11:25.323                     : en:Love at the Roach Motel\n01:20:48.093                     : en:Visiting Lou\n01:26:24.429                     : en:Showdown at the Lion's Den\n01:45:32.932                     : en:Mister Wiggly\n01:47:11.884                     : en:End Credits\n","torrent":{"xt":"urn:btih:99433675560f06aa33d3967b1157fec070566d34","amp;dn":"Bird+on+a+Wire+%281990%29+1080p+AC3+HDTV+no+logos","amp;tr":["udp%3A%2F%2Ftracker.openbittorrent.com%3A80","udp%3A%2F%2Fopen.demonii.com%3A1337","udp%3A%2F%2Ftracker.coppersurfer.tk%3A6969","udp%3A%2F%2Fexodus.desync.com%3A6969"],"infoHash":"99433675560f06aa33d3967b1157fec070566d34","infoHashBuffer":{"type":"Buffer","data":[153,67,54,117,86,15,6,170,51,211,150,123,17,87,254,192,112,86,109,52]},"announce":[],"urlList":[]}}